<?xml version="1.0" encoding="utf-8"?>
<!-- Generator: Adobe Illustrator 16.0.0, SVG Export Plug-In . SVG Version: 6.00 Build 0)  -->
<!DOCTYPE svg PUBLIC "-//W3C//DTD SVG 1.1//EN" "http://www.w3.org/Graphics/SVG/1.1/DTD/svg11.dtd">
<svg version="1.1" id="图层_1" xmlns="http://www.w3.org/2000/svg" xmlns:xlink="http://www.w3.org/1999/xlink" x="0px" y="0px"
	 width="1000.64px" height="1000.68px" viewBox="0 0 1000.64 1000.68" enable-background="new 0 0 1000.64 1000.68"
	 xml:space="preserve">
<g>
	<defs>
		<rect id="SVGID_1_" y="0.002" width="1000.636" height="1000.678"/>
	</defs>
	<clipPath id="SVGID_2_">
		<use xlink:href="#SVGID_1_"  overflow="visible"/>
	</clipPath>
	<path clip-path="url(#SVGID_2_)" fill="#fff" d="M222.75,483.491l219.53-219.53v457.525c0,26.38,25.985,47.765,58.038,47.765
		c32.055,0,58.039-21.385,58.039-47.765V262.063l219.207,222.674c22.578,22.934,59.472,23.227,82.406,0.647
		c22.935-22.577,23.224-59.471,0.646-82.405L543.565,80.914c-10.897-11.071-25.763-17.33-41.296-17.392h-0.23
		c-15.451,0-30.272,6.138-41.204,17.067L140.34,401.083c-22.755,22.756-22.755,59.651,0,82.407
		C163.097,506.248,199.995,506.248,222.75,483.491"/>
	<path clip-path="url(#SVGID_2_)" fill="#fff" d="M823.677,821.111H176.96c-29.65,0-53.685,25.985-53.685,58.039
		c0,32.053,24.035,58.038,53.685,58.038h646.717c29.649,0,53.685-25.985,53.685-58.038
		C877.361,847.096,853.326,821.111,823.677,821.111"/>
</g>
</svg>
