<?xml version="1.0" encoding="utf-8"?>
<!-- Generator: Adobe Illustrator 16.0.0, SVG Export Plug-In . SVG Version: 6.00 Build 0)  -->
<!DOCTYPE svg PUBLIC "-//W3C//DTD SVG 1.1//EN" "http://www.w3.org/Graphics/SVG/1.1/DTD/svg11.dtd">
<svg version="1.1" id="图层_1" xmlns="http://www.w3.org/2000/svg" xmlns:xlink="http://www.w3.org/1999/xlink" x="0px" y="0px"
	 width="1000.64px" height="1000.68px" viewBox="0 0 1000.64 1000.68" enable-background="new 0 0 1000.64 1000.68"
	 xml:space="preserve">
<g>
	<defs>
		<rect id="SVGID_1_" y="0.002" width="1000.636" height="1000.678"/>
	</defs>
	<clipPath id="SVGID_2_">
		<use xlink:href="#SVGID_1_"  overflow="visible"/>
	</clipPath>
	<path clip-path="url(#SVGID_2_)" fill="#fff" d="M504.71,921.879c-242.687,0-440.126-197.439-440.126-440.127
		c0-242.685,197.44-440.125,440.126-440.125c242.688,0,440.128,197.44,440.128,440.125
		C944.838,724.44,747.397,921.879,504.71,921.879 M504.71,129.228c-194.383,0-352.526,158.142-352.526,352.525
		c0,194.385,158.144,352.527,352.526,352.527c194.384,0,352.527-158.143,352.527-352.527
		C857.237,287.37,699.094,129.228,504.71,129.228"/>
	<path clip-path="url(#SVGID_2_)" fill="#fff" d="M415.683,256.865c-25.595,0-46.345,20.749-46.345,46.345v357.087
		c0,25.595,20.75,46.344,46.345,46.344c25.595,0,46.345-20.749,46.345-46.344V303.21
		C462.028,277.614,441.278,256.865,415.683,256.865"/>
	<path clip-path="url(#SVGID_2_)" fill="#fff" d="M593.737,256.865c-25.595,0-46.345,20.749-46.345,46.345v357.087
		c0,25.595,20.75,46.344,46.345,46.344s46.345-20.749,46.345-46.344V303.21C640.082,277.614,619.332,256.865,593.737,256.865"/>
</g>
</svg>
