<?xml version="1.0" encoding="utf-8"?>
<!-- Generator: Adobe Illustrator 16.0.0, SVG Export Plug-In . SVG Version: 6.00 Build 0)  -->
<!DOCTYPE svg PUBLIC "-//W3C//DTD SVG 1.1//EN" "http://www.w3.org/Graphics/SVG/1.1/DTD/svg11.dtd">
<svg version="1.1" id="图层_1" xmlns="http://www.w3.org/2000/svg" xmlns:xlink="http://www.w3.org/1999/xlink" x="0px" y="0px"
	 width="1000.64px" height="1000.68px" viewBox="0 0 1000.64 1000.68" enable-background="new 0 0 1000.64 1000.68"
	 xml:space="preserve">
<g>
	<defs>
		<rect id="SVGID_1_" y="0.002" width="1000.636" height="1000.678"/>
	</defs>
	<clipPath id="SVGID_2_">
		<use xlink:href="#SVGID_1_"  overflow="visible"/>
	</clipPath>
	<path clip-path="url(#SVGID_2_)" d="M500.317,942.737c-59.708,0-117.646-11.7-172.204-34.777
		c-52.682-22.282-99.989-54.175-140.606-94.793c-40.618-40.618-72.512-87.925-94.794-140.608
		C69.637,618,57.937,560.062,57.937,500.354c0-59.707,11.7-117.645,34.777-172.204c22.282-52.682,54.176-99.989,94.794-140.606
		c40.617-40.619,87.924-72.512,140.606-94.794c54.558-23.077,112.496-34.777,172.204-34.777s117.646,11.7,172.204,34.777
		c52.684,22.282,99.99,54.175,140.607,94.794c40.617,40.617,72.512,87.924,94.794,140.606
		c23.076,54.559,34.776,112.497,34.776,172.204c0,59.708-11.7,117.646-34.776,172.204c-22.282,52.684-54.177,99.99-94.794,140.608
		s-87.924,72.511-140.607,94.793C617.964,931.037,560.025,942.737,500.317,942.737 M500.317,118.357
		c-102.035,0-197.963,39.735-270.112,111.885c-72.151,72.149-111.885,168.077-111.885,270.112
		c0,102.035,39.734,197.964,111.885,270.113c72.149,72.151,168.077,111.885,270.112,111.885
		c102.036,0,197.964-39.733,270.113-111.885c72.151-72.148,111.885-168.077,111.885-270.113
		c0-102.035-39.733-197.963-111.885-270.112C698.281,158.092,602.354,118.357,500.317,118.357"/>
	<path clip-path="url(#SVGID_2_)" d="M499.277,654.128h-0.139c-9.389-0.037-18.375-3.821-24.963-10.514L282.522,448.931
		c-13.647-13.863-13.472-36.165,0.391-49.813c13.864-13.649,36.166-13.472,49.813,0.391l166.748,169.384l168.63-168.631
		c13.756-13.756,36.06-13.756,49.814,0c13.757,13.756,13.757,36.059,0,49.814L524.185,643.811
		C517.577,650.418,508.617,654.128,499.277,654.128"/>
</g>
</svg>
