<?xml version="1.0" encoding="utf-8"?>
<!-- Generator: Adobe Illustrator 16.0.0, SVG Export Plug-In . SVG Version: 6.00 Build 0)  -->
<!DOCTYPE svg PUBLIC "-//W3C//DTD SVG 1.1//EN" "http://www.w3.org/Graphics/SVG/1.1/DTD/svg11.dtd">
<svg version="1.1" id="图层_1" xmlns="http://www.w3.org/2000/svg" xmlns:xlink="http://www.w3.org/1999/xlink" x="0px" y="0px"
	 width="1000.64px" height="1000.68px" viewBox="0 0 1000.64 1000.68" enable-background="new 0 0 1000.64 1000.68"
	 xml:space="preserve">
<g>
	<defs>
		<rect id="SVGID_1_" y="0.002" width="1000.636" height="1000.678"/>
	</defs>
	<clipPath id="SVGID_2_">
		<use xlink:href="#SVGID_1_"  overflow="visible"/>
	</clipPath>
	<path clip-path="url(#SVGID_2_)" fill="#98a4b8" d="M346.762,893.492c0,27.124-22.655,49.112-50.601,49.112c-27.946,0-50.601-21.988-50.601-49.112
		v-786.3c0-27.124,22.655-49.113,50.601-49.113c27.946,0,50.601,21.989,50.601,49.113V893.492z"/>
	<path clip-path="url(#SVGID_2_)" fill="#98a4b8" d="M755.076,893.492c0,27.124-22.655,49.112-50.601,49.112c-27.946,0-50.602-21.988-50.602-49.112
		v-786.3c0-27.124,22.655-49.113,50.602-49.113c27.945,0,50.601,21.989,50.601,49.113V893.492z"/>
</g>
</svg>
