<?xml version="1.0" encoding="utf-8"?>
<!-- Generator: Adobe Illustrator 16.0.0, SVG Export Plug-In . SVG Version: 6.00 Build 0)  -->
<!DOCTYPE svg PUBLIC "-//W3C//DTD SVG 1.1//EN" "http://www.w3.org/Graphics/SVG/1.1/DTD/svg11.dtd">
<svg version="1.1" id="图层_1" xmlns="http://www.w3.org/2000/svg" xmlns:xlink="http://www.w3.org/1999/xlink" x="0px" y="0px"
	 width="1000.64px" height="1000.68px" viewBox="0 0 1000.64 1000.68" enable-background="new 0 0 1000.64 1000.68"
	 xml:space="preserve">
<g>
	<defs>
		<rect id="SVGID_1_" y="0.002" width="1000.636" height="1000.678"/>
	</defs>
	<clipPath id="SVGID_2_">
		<use xlink:href="#SVGID_1_"  overflow="visible"/>
	</clipPath>
	<path clip-path="url(#SVGID_2_)" fill="#98a4b8" d="M500.735,60.215c-242.688,0-440.127,197.44-440.127,440.125
		c0,242.687,197.44,440.127,440.127,440.127c242.687,0,440.127-197.44,440.127-440.127
		C940.862,257.655,743.422,60.215,500.735,60.215 M500.735,852.867c-194.383,0-352.527-158.142-352.527-352.526
		c0-194.382,158.144-352.525,352.527-352.525c194.383,0,352.526,158.143,352.526,352.525
		C853.262,694.725,695.118,852.867,500.735,852.867"/>
	<path clip-path="url(#SVGID_2_)" fill="#98a4b8" d="M529.062,242.791c-22.941,0-41.54,24.618-41.54,54.985v181.373H337.515
		c-26.766,0-48.464,18.598-48.464,41.54c0,22.942,21.698,41.54,48.464,41.54h184.624c1.346,0,2.673-0.059,3.991-0.15
		c0.97,0.089,1.945,0.15,2.932,0.15c7.798,0,15.089-2.849,21.323-7.795c12.239-7.54,20.218-19.84,20.218-33.745
		c0-1.868-0.159-3.703-0.437-5.506c0.283-2.593,0.437-5.242,0.437-7.938V297.775C570.603,267.408,552.004,242.791,529.062,242.791"
		/>
</g>
</svg>
