<?xml version="1.0" encoding="utf-8"?>
<!-- Generator: Adobe Illustrator 16.0.0, SVG Export Plug-In . SVG Version: 6.00 Build 0)  -->
<!DOCTYPE svg PUBLIC "-//W3C//DTD SVG 1.1//EN" "http://www.w3.org/Graphics/SVG/1.1/DTD/svg11.dtd">
<svg version="1.1" id="图层_1" xmlns="http://www.w3.org/2000/svg" xmlns:xlink="http://www.w3.org/1999/xlink" x="0px" y="0px"
	 width="1000.64px" height="1000.68px" viewBox="0 0 1000.64 1000.68" enable-background="new 0 0 1000.64 1000.68"
	 xml:space="preserve">
<g>
	<defs>
		<rect id="SVGID_1_" y="0.002" width="1000.636" height="1000.678"/>
	</defs>
	<clipPath id="SVGID_2_">
		<use xlink:href="#SVGID_1_"  overflow="visible"/>
	</clipPath>
	<path clip-path="url(#SVGID_2_)" fill="#98a4b8" d="M500.318,933.653c-30.454,0-67.317-17.884-112.698-54.674
		c-37.654-30.524-78.762-72.601-115.754-118.479c-40.71-50.489-75.21-103.837-99.772-154.278
		c-29.694-60.98-44.75-116.905-44.75-166.218c0-50.331,9.868-99.181,29.329-145.193c18.788-44.419,45.674-84.302,79.913-118.54
		c34.239-34.239,74.122-61.126,118.54-79.913c46.011-19.462,94.861-29.329,145.192-29.329s99.181,9.867,145.191,29.329
		c44.418,18.787,84.302,45.674,118.54,79.913c34.239,34.238,61.125,74.121,79.913,118.54
		c19.461,46.012,29.329,94.862,29.329,145.193c0,49.309-14.939,105.198-44.404,166.112c-24.446,50.542-58.777,103.904-99.281,154.32
		c-36.958,46.002-78.066,88.115-115.755,118.582C568.375,915.783,531.237,933.653,500.318,933.653 M500.318,157.029
		c-75.585,0-146.646,29.435-200.093,82.882c-53.446,53.446-82.881,124.508-82.881,200.093c0,67.211,45.19,164.175,120.881,259.379
		c32.293,40.619,68.147,78.076,100.953,105.472c34.997,29.226,55.489,37.719,61.24,38.743c5.738-0.917,26.206-9.113,61.146-38.084
		c32.771-27.173,68.63-64.575,100.975-105.318c75.612-95.244,120.754-192.514,120.754-260.191
		c0-75.585-29.435-146.647-82.881-200.093C646.964,186.464,575.903,157.029,500.318,157.029"/>
	<path clip-path="url(#SVGID_2_)" fill="#98a4b8" d="M500.317,588.463c-94.301,0-171.021-76.72-171.021-171.021s76.72-171.021,171.021-171.021
		c94.302,0,171.022,76.72,171.022,171.021S594.619,588.463,500.317,588.463 M500.317,306.422
		c-61.217,0-111.021,49.804-111.021,111.021s49.804,111.021,111.021,111.021c61.218,0,111.022-49.805,111.022-111.021
		S561.535,306.422,500.317,306.422"/>
</g>
</svg>
