<?xml version="1.0" encoding="utf-8"?>
<!-- Generator: Adobe Illustrator 16.0.0, SVG Export Plug-In . SVG Version: 6.00 Build 0)  -->
<!DOCTYPE svg PUBLIC "-//W3C//DTD SVG 1.1//EN" "http://www.w3.org/Graphics/SVG/1.1/DTD/svg11.dtd">
<svg version="1.1" id="图层_1" xmlns="http://www.w3.org/2000/svg" xmlns:xlink="http://www.w3.org/1999/xlink" x="0px" y="0px"
	 width="1000.64px" height="1000.68px" viewBox="0 0 1000.64 1000.68" enable-background="new 0 0 1000.64 1000.68"
	 xml:space="preserve">
<g>
	<defs>
		<rect id="SVGID_1_" y="0.002" width="1000.636" height="1000.678"/>
	</defs>
	<clipPath id="SVGID_2_">
		<use xlink:href="#SVGID_1_"  overflow="visible"/>
	</clipPath>
	<path clip-path="url(#SVGID_2_)" fill="#fff" d="M591.027,500.341l301.045-301.044c25.971-25.971,27.972-66.078,4.468-89.582l-5.597-5.596
		c-23.503-23.503-63.61-21.503-89.582,4.468L500.317,409.631L199.274,108.587c-25.971-25.971-66.078-27.971-89.581-4.468
		l-5.597,5.596c-23.503,23.504-21.503,63.611,4.469,89.582l301.043,301.044L108.565,801.385
		c-25.972,25.971-27.972,66.078-4.469,89.582l5.597,5.596c23.503,23.503,63.61,21.503,89.581-4.468l301.043-301.044L801.36,892.095
		c25.973,25.971,66.08,27.971,89.583,4.468l5.597-5.596c23.504-23.504,21.503-63.611-4.468-89.582L591.027,500.341z"/>
</g>
</svg>
