<?xml version="1.0" encoding="utf-8"?>
<!-- Generator: Adobe Illustrator 16.0.0, SVG Export Plug-In . SVG Version: 6.00 Build 0)  -->
<!DOCTYPE svg PUBLIC "-//W3C//DTD SVG 1.1//EN" "http://www.w3.org/Graphics/SVG/1.1/DTD/svg11.dtd">
<svg version="1.1" id="图层_1" xmlns="http://www.w3.org/2000/svg" xmlns:xlink="http://www.w3.org/1999/xlink" x="0px" y="0px"
	 width="1000.64px" height="1000.68px" viewBox="0 0 1000.64 1000.68" enable-background="new 0 0 1000.64 1000.68"
	 xml:space="preserve">
<g>
	<defs>
		<rect id="SVGID_1_" y="0.002" width="1000.636" height="1000.678"/>
	</defs>
	<clipPath id="SVGID_2_">
		<use xlink:href="#SVGID_1_"  overflow="visible"/>
	</clipPath>
	<path clip-path="url(#SVGID_2_)" fill="#98a4b8" d="M500.096,549.903c-66.104,0-128.253-25.742-174.996-72.486
		c-46.743-46.743-72.485-108.891-72.485-174.996s25.742-128.253,72.485-174.997c46.743-46.743,108.892-72.485,174.996-72.485
		c66.105,0,128.253,25.742,174.997,72.485c46.742,46.744,72.485,108.892,72.485,174.997s-25.743,128.253-72.485,174.996
		C628.349,524.161,566.201,549.903,500.096,549.903 M498.373,137.92c-91.656,0-166.224,74.568-166.224,166.224
		c0,91.657,74.568,166.224,166.224,166.224c91.657,0,166.224-74.567,166.224-166.224C664.597,212.488,590.029,137.92,498.373,137.92
		"/>
	<path clip-path="url(#SVGID_2_)" fill="#98a4b8" d="M583.349,940.204c-13.165,0-26.605-0.043-40.28-0.088c-13.984-0.045-28.446-0.091-42.973-0.091
		c-12.602,0-25.056,0.029-37.327,0.059c-11.961,0.027-23.75,0.055-35.334,0.055c-80.314,0.001-157.065-1.136-213.342-14.873
		c-32.595-7.956-57.01-19.743-74.642-36.036c-21.354-19.731-32.181-45.315-32.181-76.043c0-88.186,38.468-169.62,108.316-229.3
		c35.108-29.995,76.853-53.372,124.076-69.48c49.075-16.739,103.052-25.227,160.434-25.227c119.276,0,219.703,33.101,290.424,95.723
		c66.036,58.476,102.403,140.005,102.403,229.572c0,30.115-10.421,55.267-30.974,74.755c-17.087,16.202-40.737,27.954-72.3,35.925
		C734.623,939.051,660.666,940.204,583.349,940.204 M500.096,867.316c13.839,0,27.569,0.044,40.848,0.086
		c12.869,0.041,25.521,0.082,37.911,0.082c66.423,0,135.06-0.957,180.339-12.392c51.979-13.129,51.979-34.515,51.979-46.004
		c0-33.233-6.486-64.835-19.275-93.928c-13.029-29.641-32.272-55.856-57.193-77.924c-55.661-49.288-136.786-75.339-234.608-75.339
		c-47.621,0-92.108,6.938-132.227,20.623c-37.395,12.755-70.23,31.078-97.595,54.458c-52.397,44.77-81.254,105.459-81.254,170.891
		c0,11.818,0,33.817,54.868,47.211c46.706,11.399,115.328,12.344,187.468,12.343c10.913,0,22.018-0.026,33.286-0.052
		C476.298,867.344,488.127,867.316,500.096,867.316"/>
</g>
</svg>
