<?xml version="1.0" encoding="utf-8"?>
<!-- Generator: Adobe Illustrator 16.0.0, SVG Export Plug-In . SVG Version: 6.00 Build 0)  -->
<!DOCTYPE svg PUBLIC "-//W3C//DTD SVG 1.1//EN" "http://www.w3.org/Graphics/SVG/1.1/DTD/svg11.dtd">
<svg version="1.1" id="图层_1" xmlns="http://www.w3.org/2000/svg" xmlns:xlink="http://www.w3.org/1999/xlink" x="0px" y="0px"
	 width="1000.64px" height="1000.68px" viewBox="0 0 1000.64 1000.68" enable-background="new 0 0 1000.64 1000.68"
	 xml:space="preserve">
<g>
	<defs>
		<rect id="SVGID_1_" y="0.002" width="1000.636" height="1000.678"/>
	</defs>
	<clipPath id="SVGID_2_">
		<use xlink:href="#SVGID_1_"  overflow="visible"/>
	</clipPath>
	<path clip-path="url(#SVGID_2_)" fill="#98a4b8" d="M500.352,942.57c-34.188,0-66.783-14.735-94.258-42.612
		c-23.368-23.713-43.532-57.105-59.93-99.249c-30.279-77.818-46.954-184.485-46.954-300.354c0-116.501,16.363-223.13,46.076-300.243
		c16.287-42.267,36.451-75.717,59.934-99.423c27.573-27.836,60.469-42.549,95.132-42.549c34.966,0,68.057,14.699,95.693,42.506
		c23.557,23.703,43.723,57.192,59.936,99.537c29.352,76.654,45.515,183.258,45.515,300.172c0,115.645-16.787,222.326-47.271,300.394
		c-16.438,42.101-36.601,75.471-59.93,99.186C566.857,927.827,534.372,942.57,500.352,942.57 M500.352,129.78
		c-44.54,0-74.389,60.203-88.216,96.089c-26.623,69.096-41.286,166.576-41.286,274.485c0,107.197,14.943,204.639,42.079,274.376
		c32.568,83.702,68.752,96.2,87.422,96.2c14.791,0,28.814-6.947,42.872-21.237c16.253-16.521,31.561-42.458,44.269-75.002
		c27.317-69.965,42.363-167.392,42.363-274.337c0-108.372-14.482-205.878-40.778-274.555c-12.62-32.961-27.371-58.077-43.845-74.652
		C530.943,136.769,516.263,129.78,500.352,129.78"/>
	<path clip-path="url(#SVGID_2_)" fill="#98a4b8" d="M813.495,813.591c-24.175,24.176-57.642,36.803-96.781,36.519
		c-33.291-0.243-71.161-9.598-112.558-27.803c-76.436-33.615-163.652-97.249-245.583-179.18
		c-82.379-82.379-146.207-169.348-179.724-244.885c-18.37-41.404-27.765-79.315-27.923-112.683
		c-0.185-39.18,12.672-72.844,37.183-97.354c24.724-24.725,58.516-37.73,97.721-37.609c33.418,0.102,71.357,9.524,112.764,28.001
		c74.957,33.449,161.766,97.4,244.438,180.071c81.772,81.772,145.337,169.079,178.985,245.835
		c18.145,41.393,27.484,79.247,27.757,112.512C850.097,756.14,837.552,789.537,813.495,813.591 M238.767,238.862
		c-31.495,31.495-10.031,95.171,5.567,130.323c30.033,67.684,88.594,146.981,164.897,223.284
		c75.8,75.8,155.268,134.135,223.767,164.259c82.216,36.157,116.64,19.408,129.842,6.206c10.459-10.459,15.462-25.287,15.299-45.332
		c-0.191-23.175-7.706-52.338-21.733-84.336c-30.156-68.789-88.409-148.32-164.03-223.941
		C515.743,332.694,436.556,273.987,369.4,244.02c-32.231-14.382-60.421-21.712-83.79-21.783
		C265.339,222.173,250.018,227.611,238.767,238.862"/>
	<path clip-path="url(#SVGID_2_)" fill="#98a4b8" d="M187.116,813.498c-24.176-24.175-36.803-57.642-36.519-96.781
		c0.244-33.291,9.598-71.161,27.803-112.558c33.615-76.436,97.249-163.652,179.18-245.583
		c82.379-82.379,169.348-146.207,244.885-179.724c41.404-18.37,79.315-27.765,112.684-27.923
		c39.18-0.185,72.844,12.672,97.354,37.183c24.725,24.724,37.73,58.516,37.609,97.721c-0.103,33.418-9.524,71.357-28.001,112.764
		c-33.449,74.957-97.4,161.766-180.071,244.438C560.268,724.807,472.96,788.372,396.204,822.02
		c-41.393,18.145-79.247,27.483-112.512,27.757C244.567,850.099,211.171,837.554,187.116,813.498 M761.845,238.769
		c-31.495-31.495-95.171-10.031-130.322,5.567c-67.685,30.033-146.981,88.594-223.284,164.897
		c-75.8,75.8-134.135,155.268-164.26,223.767c-36.156,82.216-19.407,116.64-6.205,129.842
		c10.459,10.459,25.287,15.462,45.332,15.299c23.175-0.191,52.338-7.706,84.336-21.733c68.789-30.155,148.32-88.409,223.941-164.03
		c76.631-76.631,135.338-155.818,165.307-222.974c14.382-32.231,21.712-60.421,21.782-83.79
		C778.534,265.342,773.096,250.02,761.845,238.769"/>
	<path clip-path="url(#SVGID_2_)" fill="#98a4b8" d="M942.567,500.355c0,34.189-14.735,66.783-42.612,94.258
		c-23.714,23.368-57.105,43.531-99.249,59.93c-77.818,30.279-184.485,46.954-300.354,46.954
		c-116.502,0-223.131-16.363-300.244-46.076c-42.267-16.287-75.717-36.451-99.423-59.934c-27.836-27.573-42.548-60.47-42.548-95.132
		c0-34.965,14.698-68.056,42.505-95.693c23.703-23.557,57.192-43.723,99.537-59.936c76.654-29.351,183.258-45.514,300.173-45.514
		c115.644,0,222.325,16.787,300.392,47.269c42.102,16.439,75.472,36.602,99.187,59.931
		C927.824,433.851,942.567,466.335,942.567,500.355 M129.778,500.355c0,44.54,60.203,74.389,96.089,88.216
		c69.096,26.623,166.576,41.286,274.486,41.286c107.196,0,204.638-14.944,274.375-42.079c83.702-32.568,96.2-68.752,96.2-87.423
		c0-14.791-6.947-28.814-21.237-42.872c-16.521-16.253-42.458-31.56-75.002-44.268c-69.965-27.318-167.392-42.363-274.336-42.363
		c-108.373,0-205.879,14.482-274.556,40.778c-32.961,12.62-58.077,27.371-74.652,43.845
		C136.767,469.765,129.778,484.444,129.778,500.355"/>
</g>
</svg>
