<?xml version="1.0" encoding="utf-8"?>
<!-- Generator: Adobe Illustrator 16.0.0, SVG Export Plug-In . SVG Version: 6.00 Build 0)  -->
<!DOCTYPE svg PUBLIC "-//W3C//DTD SVG 1.1//EN" "http://www.w3.org/Graphics/SVG/1.1/DTD/svg11.dtd">
<svg version="1.1" id="图层_1" xmlns="http://www.w3.org/2000/svg" xmlns:xlink="http://www.w3.org/1999/xlink" x="0px" y="0px"
	 width="1000.64px" height="1000.68px" viewBox="0 0 1000.64 1000.68" enable-background="new 0 0 1000.64 1000.68"
	 xml:space="preserve">
<g>
	<defs>
		<rect id="SVGID_1_" y="0.002" width="1000.636" height="1000.678"/>
	</defs>
	<clipPath id="SVGID_2_">
		<use xlink:href="#SVGID_1_"  overflow="visible"/>
	</clipPath>
	<path clip-path="url(#SVGID_2_)" fill="#4384e9" d="M500.318,940.467c-242.688,0-440.127-197.44-440.127-440.127
		c0-242.685,197.44-440.125,440.127-440.125c242.687,0,440.127,197.44,440.127,440.125
		C940.445,743.027,743.005,940.467,500.318,940.467 M500.318,147.815c-194.383,0-352.527,158.142-352.527,352.525
		c0,194.385,158.144,352.527,352.527,352.527c194.383,0,352.526-158.143,352.526-352.527
		C852.845,305.958,694.701,147.815,500.318,147.815"/>
	<path clip-path="url(#SVGID_2_)" fill="#4384e9" d="M396.951,364.544c0-51.449,34.09-68.849,75.755-38.667l165.086,119.588
		c41.666,30.182,41.666,79.571,0,109.753L472.706,674.805c-41.665,30.182-75.755,12.782-75.755-38.666V364.544z"/>
</g>
</svg>
